<svg width="18" height="15" viewBox="0 0 18 15" fill="none" xmlns="http://www.w3.org/2000/svg">
<path d="M16.1683 3.62818C16.8728 3.09981 17.5069 2.46576 18 1.72603C17.366 2.00783 16.6262 2.21918 15.8865 2.28963C16.6615 1.8317 17.2251 1.1272 17.5069 0.246576C16.8024 0.669276 15.9922 0.986302 15.182 1.16243C14.4775 0.422701 13.5264 0 12.4697 0C10.4266 0 8.77104 1.65558 8.77104 3.69863C8.77104 3.98043 8.80627 4.26223 8.87672 4.54403C5.81214 4.36791 3.06458 2.88846 1.23288 0.669276C0.915852 1.19765 0.739727 1.8317 0.739727 2.53621C0.739727 3.80431 1.37378 4.93151 2.39531 5.60079C1.79648 5.56556 1.19765 5.42466 0.704502 5.14286V5.17809C0.704502 6.97456 1.9726 8.45402 3.66341 8.80627C3.38161 8.87672 3.02936 8.94717 2.71233 8.94717C2.46576 8.94717 2.2544 8.91194 2.00783 8.87672C2.46576 10.3562 3.83953 11.4129 5.45989 11.4481C4.19178 12.4345 2.60666 13.0333 0.880627 13.0333C0.563601 13.0333 0.281801 12.9981 0 12.9628C1.62035 14.0196 3.55773 14.6184 5.67124 14.6184C12.4697 14.6184 16.1683 9.01762 16.1683 4.12133C16.1683 3.94521 16.1683 3.80431 16.1683 3.62818Z" fill="black"/>
</svg>
